<svg width="18" height="20" viewBox="0 0 18 20" fill="none" xmlns="http://www.w3.org/2000/svg">
<g id="Group">
<path id="Exclude" fill-rule="evenodd" clip-rule="evenodd" d="M8.18753 18.875C8.50003 19.0312 8.81253 19.125 9.15628 19.125C9.50003 19.125 9.81253 19.0625 10.125 18.9062L16.375 15.3125C16.9688 14.9687 17.3438 14.3125 17.3438 13.625V6.40625C17.3438 5.71875 16.9688 5.0625 16.375 4.71875L10.125 1.125C9.53128 0.78125 8.78128 0.78125 8.18753 1.125L1.93753 4.71875C1.34378 5.0625 0.968781 5.71875 0.968781 6.40625V13.5937C0.968781 14.2812 1.34378 14.9375 1.93753 15.2812L8.18753 18.875ZM5.37502 9.99992C5.37502 12.0937 7.06252 13.7812 9.15627 13.7812C11.25 13.7812 12.9375 12.0937 12.9375 9.99992C12.9375 7.90617 11.25 6.21867 9.15627 6.21867C7.06252 6.21867 5.37502 7.90617 5.37502 9.99992Z" fill="white"/>
</g>
</svg>
